<?xml version="1.0" encoding="utf-8" standalone="no"?>
<!DOCTYPE svg PUBLIC "-//W3C//DTD SVG 1.1//EN"
  "http://www.w3.org/Graphics/SVG/1.1/DTD/svg11.dtd">
<svg height="288pt" version="1.1" viewBox="0 0 1152 288" width="1152pt" xmlns="http://www.w3.org/2000/svg" xmlns:xlink="http://www.w3.org/1999/xlink">
 <metadata>
  <rdf:RDF xmlns:cc="http://creativecommons.org/ns#" xmlns:dc="http://purl.org/dc/elements/1.1/" xmlns:rdf="http://www.w3.org/1999/02/22-rdf-syntax-ns#">
   <cc:Work>
    <dc:type rdf:resource="http://purl.org/dc/dcmitype/StillImage"/>
    <dc:date>2021-10-08T18:23:46.666079</dc:date>
    <dc:format>image/svg+xml</dc:format>
    <dc:creator>
     <cc:Agent>
      <dc:title>Matplotlib v3.4.2, https://matplotlib.org/</dc:title>
     </cc:Agent>
    </dc:creator>
   </cc:Work>
  </rdf:RDF>
 </metadata>
 <defs>
  <style type="text/css">*{stroke-linecap:butt;stroke-linejoin:round;}</style>
 </defs>
 <g id="figure_1">
  <g id="patch_1">
   <path d="M 0 288 
L 1152 288 
L 1152 0 
L 0 0 
z
" style="fill:#ffffff;"/>
  </g>
  <g id="axes_1">
   <g id="patch_2">
    <path d="M 54.123246 215.877819 
L 281.563999 215.877819 
L 281.563999 40.820957 
L 54.123246 40.820957 
z
" style="fill:#eaeaf2;"/>
   </g>
   <g id="matplotlib.axis_1">
    <g id="xtick_1">
     <g id="line2d_1">
      <path clip-path="url(#p4c5c01f01a)" d="M 86.226127 215.877819 
L 86.226127 40.820957 
" style="fill:none;stroke:#ffffff;stroke-linecap:round;"/>
     </g>
     <g id="line2d_2"/>
     <g id="text_1">
      <!-- 1, 1 -->
      <g style="fill:#262626;" transform="translate(88.716787 238.928773)rotate(-90)scale(0.1 -0.1)">
       <defs>
        <path d="M 1818 4288 
L 1696 4288 
C 1350 3949 947 3902 538 3891 
L 538 3520 
C 723 3526 1024 3539 1325 3673 
L 1325 371 
L 570 371 
L 570 0 
L 2573 0 
L 2573 371 
L 1818 371 
L 1818 4288 
z
" id="CMSS17-31" transform="scale(0.015625)"/>
        <path d="M 1088 6 
L 1088 512 
L 576 512 
L 576 0 
L 736 0 
L 570 -775 
L 826 -775 
L 1088 6 
z
" id="CMSS17-2c" transform="scale(0.015625)"/>
       </defs>
       <use transform="scale(0.996264)" xlink:href="#CMSS17-31"/>
       <use transform="translate(46.843624 0)scale(0.996264)" xlink:href="#CMSS17-2c"/>
       <use transform="translate(104.096941 0)scale(0.996264)" xlink:href="#CMSS17-31"/>
      </g>
     </g>
    </g>
    <g id="xtick_2">
     <g id="line2d_3">
      <path clip-path="url(#p4c5c01f01a)" d="M 140.637791 215.877819 
L 140.637791 40.820957 
" style="fill:none;stroke:#ffffff;stroke-linecap:round;"/>
     </g>
     <g id="line2d_4"/>
     <g id="text_2">
      <!-- 1, 10 -->
      <g style="fill:#262626;" transform="translate(143.128451 243.910108)rotate(-90)scale(0.1 -0.1)">
       <defs>
        <path d="M 2758 2073 
C 2758 2439 2752 3120 2490 3647 
C 2227 4153 1805 4288 1504 4288 
C 1069 4288 698 4031 506 3621 
C 301 3191 243 2748 243 2073 
C 243 1611 262 1046 493 551 
C 755 6 1197 -128 1498 -128 
C 1894 -128 2278 83 2496 525 
C 2720 988 2758 1495 2758 2073 
z
M 1498 262 
C 1011 262 864 821 819 1007 
C 742 1328 730 1636 730 2144 
C 730 2542 730 2992 851 3345 
C 998 3756 1254 3897 1498 3897 
C 1971 3897 2125 3422 2176 3255 
C 2272 2915 2272 2516 2272 2144 
C 2272 1546 2272 262 1498 262 
z
" id="CMSS17-30" transform="scale(0.015625)"/>
       </defs>
       <use transform="scale(0.996264)" xlink:href="#CMSS17-31"/>
       <use transform="translate(46.843624 0)scale(0.996264)" xlink:href="#CMSS17-2c"/>
       <use transform="translate(104.096941 0)scale(0.996264)" xlink:href="#CMSS17-31"/>
       <use transform="translate(150.940565 0)scale(0.996264)" xlink:href="#CMSS17-30"/>
      </g>
     </g>
    </g>
    <g id="xtick_3">
     <g id="line2d_5">
      <path clip-path="url(#p4c5c01f01a)" d="M 195.049454 215.877819 
L 195.049454 40.820957 
" style="fill:none;stroke:#ffffff;stroke-linecap:round;"/>
     </g>
     <g id="line2d_6"/>
     <g id="text_3">
      <!-- 10, 1 -->
      <g style="fill:#262626;" transform="translate(197.540114 243.910108)rotate(-90)scale(0.1 -0.1)">
       <use transform="scale(0.996264)" xlink:href="#CMSS17-31"/>
       <use transform="translate(46.843624 0)scale(0.996264)" xlink:href="#CMSS17-30"/>
       <use transform="translate(93.687247 0)scale(0.996264)" xlink:href="#CMSS17-2c"/>
       <use transform="translate(150.940565 0)scale(0.996264)" xlink:href="#CMSS17-31"/>
      </g>
     </g>
    </g>
    <g id="xtick_4">
     <g id="line2d_7">
      <path clip-path="url(#p4c5c01f01a)" d="M 249.461117 215.877819 
L 249.461117 40.820957 
" style="fill:none;stroke:#ffffff;stroke-linecap:round;"/>
     </g>
     <g id="line2d_8"/>
     <g id="text_4">
      <!-- 10, 10 -->
      <g style="fill:#262626;" transform="translate(251.951777 248.891444)rotate(-90)scale(0.1 -0.1)">
       <use transform="scale(0.996264)" xlink:href="#CMSS17-31"/>
       <use transform="translate(46.843624 0)scale(0.996264)" xlink:href="#CMSS17-30"/>
       <use transform="translate(93.687247 0)scale(0.996264)" xlink:href="#CMSS17-2c"/>
       <use transform="translate(150.940565 0)scale(0.996264)" xlink:href="#CMSS17-31"/>
       <use transform="translate(197.784188 0)scale(0.996264)" xlink:href="#CMSS17-30"/>
      </g>
     </g>
    </g>
    <g id="text_5">
     <!-- Mass combinations -->
     <g style="fill:#262626;" transform="translate(113.801765 262.57732)scale(0.14 -0.14)">
      <defs>
       <path d="M 3194 2373 
L 2886 1476 
C 2835 1311 2662 795 2624 592 
L 2618 592 
C 2598 719 2560 853 2458 1177 
C 2400 1368 2336 1565 2272 1743 
L 1325 4416 
L 576 4416 
L 576 0 
L 1075 0 
L 1075 3899 
L 1082 3899 
C 1082 3893 1139 3613 1530 2500 
L 2374 102 
L 2848 102 
L 3610 2233 
C 3661 2379 3821 2843 3891 3066 
C 3955 3257 4115 3728 4154 3912 
L 4160 3912 
L 4160 0 
L 4666 0 
L 4666 4416 
L 3923 4416 
L 3194 2373 
z
" id="CMSS17-4d" transform="scale(0.015625)"/>
       <path d="M 2406 1789 
C 2406 2399 1978 2816 1402 2816 
C 1120 2816 813 2764 461 2559 
L 499 2133 
C 659 2250 934 2438 1395 2438 
C 1722 2438 1920 2185 1920 1782 
L 1920 1536 
C 896 1504 256 1209 256 711 
C 256 452 416 -64 947 -64 
C 1043 -64 1562 -52 1933 224 
L 1933 -13 
L 2406 -13 
L 2406 1789 
z
M 1920 824 
C 1920 711 1920 559 1728 446 
C 1562 339 1350 326 1261 326 
C 941 326 723 503 723 723 
C 723 1165 1722 1209 1920 1216 
L 1920 824 
z
" id="CMSS17-61" transform="scale(0.015625)"/>
       <path d="M 2061 2623 
C 1683 2803 1389 2816 1197 2816 
C 742 2816 198 2655 198 2009 
C 198 1363 902 1222 1094 1183 
C 1389 1126 1715 1062 1715 742 
C 1715 339 1254 339 1171 339 
C 915 339 563 409 243 639 
L 166 211 
C 531 0 883 -64 1178 -64 
C 1965 -64 2163 416 2163 780 
C 2163 1094 1984 1305 1862 1401 
C 1651 1567 1574 1587 1050 1695 
C 960 1708 646 1779 646 2067 
C 646 2431 1050 2431 1139 2431 
C 1555 2431 1811 2303 1984 2207 
L 2061 2623 
z
" id="CMSS17-73" transform="scale(0.015625)"/>
       <path d="M 2464 2540 
C 2464 2585 2170 2713 2093 2739 
C 1882 2816 1613 2816 1542 2816 
C 710 2816 211 2092 211 1363 
C 211 595 768 -64 1517 -64 
C 1946 -64 2253 76 2502 243 
L 2464 665 
C 2189 454 1869 339 1523 339 
C 1024 339 698 774 698 1369 
C 698 1830 909 2412 1549 2412 
C 1901 2412 2099 2342 2394 2143 
L 2464 2540 
z
" id="CMSS17-63" transform="scale(0.015625)"/>
       <path d="M 2829 1356 
C 2829 2175 2221 2816 1504 2816 
C 768 2816 173 2156 173 1356 
C 173 544 787 -64 1498 -64 
C 2227 -64 2829 563 2829 1356 
z
M 1504 339 
C 1050 339 659 710 659 1407 
C 659 2150 1114 2425 1498 2425 
C 1914 2425 2342 2124 2342 1407 
C 2342 684 1926 339 1504 339 
z
" id="CMSS17-6f" transform="scale(0.015625)"/>
       <path d="M 4288 1878 
C 4288 2309 4179 2816 3462 2816 
C 2982 2816 2694 2515 2566 2328 
C 2451 2668 2182 2816 1798 2816 
C 1363 2816 1088 2566 941 2386 
L 941 2783 
L 474 2783 
L 474 0 
L 960 0 
L 960 1556 
C 960 1936 1101 2425 1555 2425 
C 2138 2425 2138 2013 2138 1826 
L 2138 0 
L 2624 0 
L 2624 1556 
C 2624 1936 2765 2425 3219 2425 
C 3802 2425 3802 2013 3802 1826 
L 3802 0 
L 4288 0 
L 4288 1878 
z
" id="CMSS17-6d" transform="scale(0.015625)"/>
       <path d="M 954 4416 
L 480 4416 
L 480 -13 
L 966 -13 
L 966 275 
C 1210 38 1504 -64 1766 -64 
C 2381 -64 2880 559 2880 1382 
C 2880 2133 2496 2816 1926 2816 
C 1523 2816 1165 2649 954 2476 
L 954 4416 
z
M 966 2095 
C 1107 2276 1306 2425 1587 2425 
C 1965 2425 2394 2146 2394 1382 
C 2394 566 1882 326 1530 326 
C 1402 326 1267 358 1139 468 
C 966 624 966 721 966 812 
L 966 2095 
z
" id="CMSS17-62" transform="scale(0.015625)"/>
       <path d="M 979 4224 
L 442 4224 
L 442 3686 
L 979 3686 
L 979 4224 
z
M 947 2752 
L 474 2752 
L 474 0 
L 947 0 
L 947 2752 
z
" id="CMSS17-69" transform="scale(0.015625)"/>
       <path d="M 2618 1878 
C 2618 2283 2522 2816 1798 2816 
C 1389 2816 1120 2604 941 2386 
L 941 2783 
L 474 2783 
L 474 0 
L 960 0 
L 960 1556 
C 960 1962 1114 2425 1549 2425 
C 2112 2425 2131 2045 2131 1826 
L 2131 0 
L 2618 0 
L 2618 1878 
z
" id="CMSS17-6e" transform="scale(0.015625)"/>
       <path d="M 1069 2380 
L 1901 2380 
L 1901 2752 
L 1069 2752 
L 1069 3520 
L 614 3520 
L 614 2752 
L 109 2752 
L 109 2380 
L 602 2380 
L 602 751 
C 602 384 685 -64 1107 -64 
C 1427 -64 1722 25 2003 172 
L 1901 551 
C 1747 416 1562 339 1363 339 
C 1082 339 1069 699 1069 860 
L 1069 2380 
z
" id="CMSS17-74" transform="scale(0.015625)"/>
      </defs>
      <use transform="scale(0.996264)" xlink:href="#CMSS17-4d"/>
      <use transform="translate(81.67603 0)scale(0.996264)" xlink:href="#CMSS17-61"/>
      <use transform="translate(126.597951 0)scale(0.996264)" xlink:href="#CMSS17-73"/>
      <use transform="translate(162.511493 0)scale(0.996264)" xlink:href="#CMSS17-73"/>
      <use transform="translate(229.654147 0)scale(0.996264)" xlink:href="#CMSS17-63"/>
      <use transform="translate(271.292969 0)scale(0.996264)" xlink:href="#CMSS17-6f"/>
      <use transform="translate(318.136593 0)scale(0.996264)" xlink:href="#CMSS17-6d"/>
      <use transform="translate(392.365847 0)scale(0.996264)" xlink:href="#CMSS17-62"/>
      <use transform="translate(440.57079 0)scale(0.996264)" xlink:href="#CMSS17-69"/>
      <use transform="translate(462.751513 0)scale(0.996264)" xlink:href="#CMSS17-6e"/>
      <use transform="translate(510.956457 0)scale(0.996264)" xlink:href="#CMSS17-61"/>
      <use transform="translate(555.878377 0)scale(0.996264)" xlink:href="#CMSS17-74"/>
      <use transform="translate(589.709944 0)scale(0.996264)" xlink:href="#CMSS17-69"/>
      <use transform="translate(611.890667 0)scale(0.996264)" xlink:href="#CMSS17-6f"/>
      <use transform="translate(658.73429 0)scale(0.996264)" xlink:href="#CMSS17-6e"/>
      <use transform="translate(706.939234 0)scale(0.996264)" xlink:href="#CMSS17-73"/>
     </g>
    </g>
   </g>
   <g id="matplotlib.axis_2">
    <g id="ytick_1">
     <g id="line2d_9">
      <path clip-path="url(#p4c5c01f01a)" d="M 54.123246 215.877819 
L 281.563999 215.877819 
" style="fill:none;stroke:#ffffff;stroke-linecap:round;"/>
     </g>
     <g id="line2d_10"/>
     <g id="text_6">
      <!-- $\mathdefault{0}$ -->
      <g style="fill:#262626;" transform="translate(42.141911 219.337068)scale(0.1 -0.1)">
       <defs>
        <path d="M 2688 2038 
C 2688 2430 2682 3099 2413 3613 
C 2176 4063 1798 4224 1466 4224 
C 1158 4224 768 4082 525 3620 
C 269 3137 243 2539 243 2038 
C 243 1671 250 1112 448 623 
C 723 -39 1216 -128 1466 -128 
C 1760 -128 2208 -7 2470 604 
C 2662 1048 2688 1568 2688 2038 
z
M 1466 -26 
C 1056 -26 813 328 723 816 
C 653 1196 653 1749 653 2109 
C 653 2604 653 3015 736 3407 
C 858 3954 1216 4121 1466 4121 
C 1728 4121 2067 3947 2189 3420 
C 2272 3054 2278 2623 2278 2109 
C 2278 1691 2278 1176 2202 797 
C 2067 96 1690 -26 1466 -26 
z
" id="CMR17-30" transform="scale(0.015625)"/>
       </defs>
       <use transform="scale(0.996264)" xlink:href="#CMR17-30"/>
      </g>
     </g>
    </g>
    <g id="ytick_2">
     <g id="line2d_11">
      <path clip-path="url(#p4c5c01f01a)" d="M 54.123246 186.882894 
L 281.563999 186.882894 
" style="fill:none;stroke:#ffffff;stroke-linecap:round;"/>
     </g>
     <g id="line2d_12"/>
     <g id="text_7">
      <!-- $\mathdefault{1000}$ -->
      <g style="fill:#262626;" transform="translate(27.197905 190.342143)scale(0.1 -0.1)">
       <defs>
        <path d="M 1702 4083 
C 1702 4217 1696 4224 1606 4224 
C 1357 3927 979 3833 621 3820 
C 602 3820 570 3820 563 3808 
C 557 3795 557 3782 557 3648 
C 755 3648 1088 3686 1344 3839 
L 1344 467 
C 1344 243 1331 166 781 166 
L 589 166 
L 589 0 
C 896 6 1216 12 1523 12 
C 1830 12 2150 6 2458 0 
L 2458 166 
L 2266 166 
C 1715 166 1702 236 1702 467 
L 1702 4083 
z
" id="CMR17-31" transform="scale(0.015625)"/>
       </defs>
       <use transform="scale(0.996264)" xlink:href="#CMR17-31"/>
       <use transform="translate(45.690477 0)scale(0.996264)" xlink:href="#CMR17-30"/>
       <use transform="translate(91.380954 0)scale(0.996264)" xlink:href="#CMR17-30"/>
       <use transform="translate(137.071431 0)scale(0.996264)" xlink:href="#CMR17-30"/>
      </g>
     </g>
    </g>
    <g id="ytick_3">
     <g id="line2d_13">
      <path clip-path="url(#p4c5c01f01a)" d="M 54.123246 157.887968 
L 281.563999 157.887968 
" style="fill:none;stroke:#ffffff;stroke-linecap:round;"/>
     </g>
     <g id="line2d_14"/>
     <g id="text_8">
      <!-- $\mathdefault{2000}$ -->
      <g style="fill:#262626;" transform="translate(27.197905 161.347217)scale(0.1 -0.1)">
       <defs>
        <path d="M 2669 990 
L 2554 990 
C 2490 537 2438 460 2413 422 
C 2381 371 1920 371 1830 371 
L 602 371 
C 832 620 1280 1073 1824 1596 
C 2214 1966 2669 2400 2669 3033 
C 2669 3788 2067 4224 1395 4224 
C 691 4224 262 3603 262 3027 
C 262 2777 448 2745 525 2745 
C 589 2745 781 2783 781 3007 
C 781 3206 614 3264 525 3264 
C 486 3264 448 3257 422 3244 
C 544 3788 915 4057 1306 4057 
C 1862 4057 2227 3616 2227 3033 
C 2227 2477 1901 1998 1536 1583 
L 262 147 
L 262 0 
L 2515 0 
L 2669 990 
z
" id="CMR17-32" transform="scale(0.015625)"/>
       </defs>
       <use transform="scale(0.996264)" xlink:href="#CMR17-32"/>
       <use transform="translate(45.690477 0)scale(0.996264)" xlink:href="#CMR17-30"/>
       <use transform="translate(91.380954 0)scale(0.996264)" xlink:href="#CMR17-30"/>
       <use transform="translate(137.071431 0)scale(0.996264)" xlink:href="#CMR17-30"/>
      </g>
     </g>
    </g>
    <g id="ytick_4">
     <g id="line2d_15">
      <path clip-path="url(#p4c5c01f01a)" d="M 54.123246 128.893043 
L 281.563999 128.893043 
" style="fill:none;stroke:#ffffff;stroke-linecap:round;"/>
     </g>
     <g id="line2d_16"/>
     <g id="text_9">
      <!-- $\mathdefault{3000}$ -->
      <g style="fill:#262626;" transform="translate(27.197905 132.352292)scale(0.1 -0.1)">
       <defs>
        <path d="M 1414 2176 
C 1984 2176 2234 1673 2234 1094 
C 2234 322 1824 25 1453 25 
C 1114 25 563 193 390 691 
C 422 678 454 678 486 678 
C 640 678 755 780 755 947 
C 755 1132 614 1216 486 1216 
C 378 1216 211 1164 211 927 
C 211 335 787 -128 1466 -128 
C 2176 -128 2720 432 2720 1087 
C 2720 1718 2208 2176 1600 2246 
C 2086 2347 2554 2776 2554 3353 
C 2554 3856 2048 4224 1472 4224 
C 890 4224 378 3862 378 3347 
C 378 3123 544 3084 627 3084 
C 762 3084 877 3167 877 3334 
C 877 3500 762 3584 627 3584 
C 602 3584 570 3584 544 3571 
C 730 3999 1235 4076 1459 4076 
C 1683 4076 2106 3966 2106 3347 
C 2106 3167 2080 2851 1862 2574 
C 1670 2329 1453 2316 1242 2297 
C 1210 2297 1062 2284 1037 2284 
C 992 2278 966 2272 966 2227 
C 966 2182 973 2176 1101 2176 
L 1414 2176 
z
" id="CMR17-33" transform="scale(0.015625)"/>
       </defs>
       <use transform="scale(0.996264)" xlink:href="#CMR17-33"/>
       <use transform="translate(45.690477 0)scale(0.996264)" xlink:href="#CMR17-30"/>
       <use transform="translate(91.380954 0)scale(0.996264)" xlink:href="#CMR17-30"/>
       <use transform="translate(137.071431 0)scale(0.996264)" xlink:href="#CMR17-30"/>
      </g>
     </g>
    </g>
    <g id="ytick_5">
     <g id="line2d_17">
      <path clip-path="url(#p4c5c01f01a)" d="M 54.123246 99.898117 
L 281.563999 99.898117 
" style="fill:none;stroke:#ffffff;stroke-linecap:round;"/>
     </g>
     <g id="line2d_18"/>
     <g id="text_10">
      <!-- $\mathdefault{4000}$ -->
      <g style="fill:#262626;" transform="translate(27.197905 103.357366)scale(0.1 -0.1)">
       <defs>
        <path d="M 2150 4147 
C 2150 4281 2144 4288 2029 4288 
L 128 1254 
L 128 1088 
L 1779 1088 
L 1779 460 
C 1779 230 1766 166 1318 166 
L 1197 166 
L 1197 0 
C 1402 12 1747 12 1965 12 
C 2182 12 2528 12 2733 0 
L 2733 166 
L 2611 166 
C 2163 166 2150 230 2150 460 
L 2150 1088 
L 2803 1088 
L 2803 1254 
L 2150 1254 
L 2150 4147 
z
M 1798 3723 
L 1798 1254 
L 256 1254 
L 1798 3723 
z
" id="CMR17-34" transform="scale(0.015625)"/>
       </defs>
       <use transform="scale(0.996264)" xlink:href="#CMR17-34"/>
       <use transform="translate(45.690477 0)scale(0.996264)" xlink:href="#CMR17-30"/>
       <use transform="translate(91.380954 0)scale(0.996264)" xlink:href="#CMR17-30"/>
       <use transform="translate(137.071431 0)scale(0.996264)" xlink:href="#CMR17-30"/>
      </g>
     </g>
    </g>
    <g id="ytick_6">
     <g id="line2d_19">
      <path clip-path="url(#p4c5c01f01a)" d="M 54.123246 70.903192 
L 281.563999 70.903192 
" style="fill:none;stroke:#ffffff;stroke-linecap:round;"/>
     </g>
     <g id="line2d_20"/>
     <g id="text_11">
      <!-- $\mathdefault{5000}$ -->
      <g style="fill:#262626;" transform="translate(27.197905 74.362441)scale(0.1 -0.1)">
       <defs>
        <path d="M 730 3750 
C 794 3724 1056 3641 1325 3641 
C 1920 3641 2246 3961 2432 4140 
C 2432 4191 2432 4224 2394 4224 
C 2387 4224 2374 4224 2323 4198 
C 2099 4102 1837 4032 1517 4032 
C 1325 4032 1037 4055 723 4191 
C 653 4224 640 4224 634 4224 
C 602 4224 595 4217 595 4090 
L 595 2231 
C 595 2113 595 2080 659 2080 
C 691 2080 704 2093 736 2139 
C 941 2435 1222 2560 1542 2560 
C 1766 2560 2246 2415 2246 1293 
C 2246 1087 2246 716 2054 422 
C 1894 159 1645 25 1370 25 
C 947 25 518 319 403 812 
C 429 806 480 793 506 793 
C 589 793 749 838 749 1036 
C 749 1209 627 1280 506 1280 
C 358 1280 262 1190 262 1011 
C 262 454 704 -128 1382 -128 
C 2042 -128 2669 441 2669 1267 
C 2669 2054 2170 2662 1549 2662 
C 1222 2662 947 2540 730 2304 
L 730 3750 
z
" id="CMR17-35" transform="scale(0.015625)"/>
       </defs>
       <use transform="scale(0.996264)" xlink:href="#CMR17-35"/>
       <use transform="translate(45.690477 0)scale(0.996264)" xlink:href="#CMR17-30"/>
       <use transform="translate(91.380954 0)scale(0.996264)" xlink:href="#CMR17-30"/>
       <use transform="translate(137.071431 0)scale(0.996264)" xlink:href="#CMR17-30"/>
      </g>
     </g>
    </g>
    <g id="ytick_7">
     <g id="line2d_21">
      <path clip-path="url(#p4c5c01f01a)" d="M 54.123246 41.908266 
L 281.563999 41.908266 
" style="fill:none;stroke:#ffffff;stroke-linecap:round;"/>
     </g>
     <g id="line2d_22"/>
     <g id="text_12">
      <!-- $\mathdefault{6000}$ -->
      <g style="fill:#262626;" transform="translate(27.197905 45.367515)scale(0.1 -0.1)">
       <defs>
        <path d="M 678 2198 
C 678 3712 1395 4076 1811 4076 
C 1946 4076 2272 4049 2400 3782 
C 2298 3782 2106 3782 2106 3558 
C 2106 3385 2246 3328 2336 3328 
C 2394 3328 2566 3353 2566 3571 
C 2566 3987 2246 4224 1805 4224 
C 1043 4224 243 3411 243 2011 
C 243 257 966 -128 1478 -128 
C 2099 -128 2688 431 2688 1295 
C 2688 2101 2170 2688 1517 2688 
C 1126 2688 838 2430 678 1979 
L 678 2198 
z
M 1478 25 
C 691 25 691 1212 691 1450 
C 691 1914 909 2585 1504 2585 
C 1613 2585 1926 2585 2138 2140 
C 2253 1889 2253 1624 2253 1302 
C 2253 954 2253 696 2118 438 
C 1978 173 1773 25 1478 25 
z
" id="CMR17-36" transform="scale(0.015625)"/>
       </defs>
       <use transform="scale(0.996264)" xlink:href="#CMR17-36"/>
       <use transform="translate(45.690477 0)scale(0.996264)" xlink:href="#CMR17-30"/>
       <use transform="translate(91.380954 0)scale(0.996264)" xlink:href="#CMR17-30"/>
       <use transform="translate(137.071431 0)scale(0.996264)" xlink:href="#CMR17-30"/>
      </g>
     </g>
    </g>
    <g id="text_13">
     <!-- \# Experiments -->
     <g style="fill:#262626;" transform="translate(20.485876 171.183161)rotate(-90)scale(0.14 -0.14)">
      <defs>
       <path d="M 3142 896 
L 4461 896 
C 4570 896 4678 896 4678 1011 
C 4678 1120 4582 1120 4486 1120 
L 3206 1120 
L 3424 2015 
L 4486 2015 
C 4582 2015 4678 2015 4678 2124 
C 4678 2240 4570 2240 4461 2240 
L 3488 2240 
L 3981 4185 
C 4000 4249 4006 4281 4006 4300 
C 4006 4364 3955 4416 3891 4416 
C 3802 4416 3782 4326 3770 4275 
L 3258 2240 
L 2099 2240 
L 2592 4185 
C 2611 4249 2618 4281 2618 4300 
C 2618 4364 2566 4416 2502 4416 
C 2413 4416 2394 4326 2381 4275 
L 1869 2240 
L 550 2240 
C 442 2240 333 2240 333 2124 
C 333 2015 429 2015 525 2015 
L 1805 2015 
L 1587 1120 
L 525 1120 
C 429 1120 333 1120 333 1011 
C 333 896 442 896 550 896 
L 1523 896 
L 1030 -1049 
C 1011 -1114 1005 -1146 1005 -1165 
C 1005 -1229 1056 -1280 1120 -1280 
C 1210 -1280 1229 -1191 1242 -1140 
L 1754 896 
L 2912 896 
L 2419 -1049 
C 2400 -1114 2394 -1146 2394 -1165 
C 2394 -1229 2445 -1280 2509 -1280 
C 2598 -1280 2618 -1191 2630 -1140 
L 3142 896 
z
M 1818 1120 
L 2035 2015 
L 3194 2015 
L 2976 1120 
L 1818 1120 
z
" id="CMSS17-23" transform="scale(0.015625)"/>
       <path d="M 1958 435 
C 1446 435 1216 435 1101 428 
L 1101 2105 
L 3085 2105 
L 3085 2496 
L 1101 2496 
L 1101 3993 
L 1926 3993 
C 2003 3993 2080 3987 2157 3987 
L 3251 3987 
L 3251 4403 
L 563 4403 
L 563 0 
L 3334 0 
L 3334 441 
L 1958 435 
z
" id="CMSS17-45" transform="scale(0.015625)"/>
       <path d="M 1587 1420 
L 2656 2752 
L 2099 2752 
L 1363 1785 
L 602 2752 
L 32 2752 
L 1139 1420 
L 0 0 
L 563 0 
L 1363 1126 
L 2195 0 
L 2758 0 
L 1587 1420 
z
" id="CMSS17-78" transform="scale(0.015625)"/>
       <path d="M 966 275 
C 1178 70 1466 -64 1773 -64 
C 2368 -64 2880 553 2880 1382 
C 2880 2147 2496 2816 1946 2816 
C 1626 2816 1242 2700 954 2470 
L 954 2764 
L 480 2764 
L 480 -1280 
L 966 -1280 
L 966 275 
z
M 966 2088 
C 1018 2166 1235 2412 1587 2412 
C 2035 2412 2394 1946 2394 1382 
C 2394 741 1958 326 1530 326 
C 1402 326 1267 358 1139 468 
C 966 624 966 721 966 812 
L 966 2088 
z
" id="CMSS17-70" transform="scale(0.015625)"/>
       <path d="M 2502 1375 
C 2502 1587 2490 2001 2285 2347 
C 2061 2713 1696 2816 1421 2816 
C 755 2816 192 2184 192 1363 
C 192 579 774 -64 1510 -64 
C 1798 -64 2150 19 2470 249 
C 2470 275 2458 414 2451 421 
C 2451 433 2432 629 2432 655 
C 2125 408 1773 326 1517 326 
C 1107 326 666 667 646 1375 
L 2502 1375 
z
M 698 1728 
C 781 2086 1062 2425 1421 2425 
C 1517 2425 1965 2412 2080 1728 
L 698 1728 
z
" id="CMSS17-65" transform="scale(0.015625)"/>
       <path d="M 954 1369 
C 954 1974 1395 2379 1958 2392 
L 1958 2816 
C 1549 2809 1165 2604 934 2270 
L 934 2783 
L 480 2783 
L 480 0 
L 954 0 
L 954 1369 
z
" id="CMSS17-72" transform="scale(0.015625)"/>
      </defs>
      <use transform="scale(0.996264)" xlink:href="#CMSS17-23"/>
      <use transform="translate(109.301849 0)scale(0.996264)" xlink:href="#CMSS17-45"/>
      <use transform="translate(165.193862 0)scale(0.996264)" xlink:href="#CMSS17-78"/>
      <use transform="translate(208.194004 0)scale(0.996264)" xlink:href="#CMSS17-70"/>
      <use transform="translate(259.001386 0)scale(0.996264)" xlink:href="#CMSS17-65"/>
      <use transform="translate(300.640208 0)scale(0.996264)" xlink:href="#CMSS17-72"/>
      <use transform="translate(332.54998 0)scale(0.996264)" xlink:href="#CMSS17-69"/>
      <use transform="translate(354.730703 0)scale(0.996264)" xlink:href="#CMSS17-6d"/>
      <use transform="translate(428.959958 0)scale(0.996264)" xlink:href="#CMSS17-65"/>
      <use transform="translate(470.59878 0)scale(0.996264)" xlink:href="#CMSS17-6e"/>
      <use transform="translate(518.803723 0)scale(0.996264)" xlink:href="#CMSS17-74"/>
      <use transform="translate(552.63529 0)scale(0.996264)" xlink:href="#CMSS17-73"/>
     </g>
    </g>
   </g>
   <g id="patch_3">
    <path clip-path="url(#p4c5c01f01a)" d="M 64.461462 215.877819 
L 107.990793 215.877819 
L 107.990793 49.156998 
L 64.461462 49.156998 
z
" style="fill:#4c72b0;"/>
   </g>
   <g id="patch_4">
    <path clip-path="url(#p4c5c01f01a)" d="M 118.873125 215.877819 
L 162.402456 215.877819 
L 162.402456 49.156998 
L 118.873125 49.156998 
z
" style="fill:#4c72b0;"/>
   </g>
   <g id="patch_5">
    <path clip-path="url(#p4c5c01f01a)" d="M 173.284789 215.877819 
L 216.814119 215.877819 
L 216.814119 49.446947 
L 173.284789 49.446947 
z
" style="fill:#4c72b0;"/>
   </g>
   <g id="patch_6">
    <path clip-path="url(#p4c5c01f01a)" d="M 227.696452 215.877819 
L 271.225783 215.877819 
L 271.225783 49.446947 
L 227.696452 49.446947 
z
" style="fill:#4c72b0;"/>
   </g>
   <g id="patch_7">
    <path d="M 54.123246 215.877819 
L 54.123246 40.820957 
" style="fill:none;"/>
   </g>
   <g id="patch_8">
    <path d="M 281.563999 215.877819 
L 281.563999 40.820957 
" style="fill:none;"/>
   </g>
   <g id="patch_9">
    <path d="M 54.123246 215.877819 
L 281.563999 215.877819 
" style="fill:none;"/>
   </g>
   <g id="patch_10">
    <path d="M 54.123246 40.820957 
L 281.563999 40.820957 
" style="fill:none;"/>
   </g>
   <g id="text_14">
    <!-- Histogram of the  -->
    <g style="fill:#262626;" transform="translate(119.492955 20.485876)scale(0.14 -0.14)">
     <defs>
      <path d="M 3674 4416 
L 3136 4416 
L 3136 2496 
L 1101 2496 
L 1101 4416 
L 563 4416 
L 563 0 
L 1101 0 
L 1101 2105 
L 3136 2105 
L 3136 0 
L 3674 0 
L 3674 4416 
z
" id="CMSS17-48" transform="scale(0.015625)"/>
      <path d="M 2848 2816 
C 2483 2809 2170 2739 1914 2617 
C 1702 2783 1485 2816 1338 2816 
C 781 2816 358 2356 358 1824 
C 358 1481 550 1222 563 1209 
C 448 1049 384 876 384 684 
C 384 460 474 300 544 211 
C 211 6 166 -308 166 -429 
C 166 -896 749 -1280 1498 -1280 
C 2253 -1280 2835 -896 2835 -423 
C 2835 460 1856 467 1587 467 
L 1069 467 
C 973 467 717 467 717 793 
C 717 921 774 1004 781 1011 
C 877 940 1075 832 1338 832 
C 1869 832 2310 1279 2310 1824 
C 2310 2128 2170 2349 2112 2425 
L 2131 2425 
C 2150 2425 2419 2444 2515 2444 
C 2720 2444 2739 2438 2918 2419 
L 2848 2816 
z
M 1338 1184 
C 1120 1184 813 1317 813 1824 
C 813 2375 1165 2463 1331 2463 
C 1549 2463 1856 2330 1856 1824 
C 1856 1272 1504 1184 1338 1184 
z
M 1581 0 
C 1734 0 2381 0 2381 -436 
C 2381 -711 1984 -928 1504 -928 
C 1018 -928 621 -717 621 -429 
C 621 -397 621 0 1062 0 
L 1581 0 
z
" id="CMSS17-67" transform="scale(0.015625)"/>
      <path d="M 1075 2380 
L 1722 2380 
L 1722 2752 
L 1062 2752 
L 1062 3563 
C 1062 4013 1408 4089 1606 4089 
C 1670 4089 1850 4089 2080 4007 
L 2080 4428 
C 1933 4460 1754 4480 1613 4480 
C 1018 4480 602 3994 602 3366 
L 602 2752 
L 160 2752 
L 160 2380 
L 602 2380 
L 602 0 
L 1075 0 
L 1075 2380 
z
" id="CMSS17-66" transform="scale(0.015625)"/>
      <path d="M 2618 1878 
C 2618 2283 2522 2816 1798 2816 
C 1395 2816 1133 2617 947 2399 
L 947 4416 
L 474 4416 
L 474 0 
L 960 0 
L 960 1556 
C 960 1962 1114 2425 1549 2425 
C 2112 2425 2131 2045 2131 1826 
L 2131 0 
L 2618 0 
L 2618 1878 
z
" id="CMSS17-68" transform="scale(0.015625)"/>
     </defs>
     <use transform="scale(0.996264)" xlink:href="#CMSS17-48"/>
     <use transform="translate(66.061519 0)scale(0.996264)" xlink:href="#CMSS17-69"/>
     <use transform="translate(88.242242 0)scale(0.996264)" xlink:href="#CMSS17-73"/>
     <use transform="translate(124.155784 0)scale(0.996264)" xlink:href="#CMSS17-74"/>
     <use transform="translate(157.987351 0)scale(0.996264)" xlink:href="#CMSS17-6f"/>
     <use transform="translate(204.830974 0)scale(0.996264)" xlink:href="#CMSS17-67"/>
     <use transform="translate(251.674598 0)scale(0.996264)" xlink:href="#CMSS17-72"/>
     <use transform="translate(283.584371 0)scale(0.996264)" xlink:href="#CMSS17-61"/>
     <use transform="translate(328.506291 0)scale(0.996264)" xlink:href="#CMSS17-6d"/>
     <use transform="translate(433.964658 0)scale(0.996264)" xlink:href="#CMSS17-6f"/>
     <use transform="translate(480.808282 0)scale(0.996264)" xlink:href="#CMSS17-66"/>
     <use transform="translate(540.664053 0)scale(0.996264)" xlink:href="#CMSS17-74"/>
     <use transform="translate(574.49562 0)scale(0.996264)" xlink:href="#CMSS17-68"/>
     <use transform="translate(622.700563 0)scale(0.996264)" xlink:href="#CMSS17-65"/>
    </g>
    <!--  Confounder Combinations -->
    <g style="fill:#262626;" transform="translate(94.257464 34.820957)scale(0.14 -0.14)">
     <defs>
      <path d="M 3501 705 
C 3072 416 2874 332 2355 332 
C 1459 332 934 1304 934 2191 
C 934 3137 1472 4070 2381 4070 
C 2790 4070 3059 3954 3386 3748 
L 3475 4255 
C 3168 4409 2778 4480 2387 4480 
C 1158 4480 397 3343 397 2191 
C 397 924 1299 -77 2323 -77 
C 2874 -77 3066 -32 3539 268 
L 3501 705 
z
" id="CMSS17-43" transform="scale(0.015625)"/>
      <path d="M 2618 2752 
L 2131 2752 
L 2131 976 
C 2131 500 1786 307 1421 307 
C 998 307 960 448 960 712 
L 960 2752 
L 474 2752 
L 474 680 
C 474 179 646 -64 1088 -64 
C 1306 -64 1798 -13 2144 307 
L 2144 -13 
L 2618 -13 
L 2618 2752 
z
" id="CMSS17-75" transform="scale(0.015625)"/>
      <path d="M 2611 4416 
L 2138 4416 
L 2138 2495 
C 1939 2662 1613 2816 1254 2816 
C 672 2816 211 2179 211 1375 
C 211 572 666 -64 1235 -64 
C 1677 -64 1971 172 2125 307 
L 2125 -13 
L 2611 -13 
L 2611 4416 
z
M 2125 851 
C 2125 760 2125 663 1926 488 
C 1798 378 1645 326 1498 326 
C 1152 326 698 585 698 1369 
C 698 2185 1210 2425 1562 2425 
C 1798 2425 1990 2308 2125 2114 
L 2125 851 
z
" id="CMSS17-64" transform="scale(0.015625)"/>
     </defs>
     <use transform="scale(0.996264)" xlink:href="#CMSS17-43"/>
     <use transform="translate(59.855772 0)scale(0.996264)" xlink:href="#CMSS17-6f"/>
     <use transform="translate(106.699395 0)scale(0.996264)" xlink:href="#CMSS17-6e"/>
     <use transform="translate(154.904338 0)scale(0.996264)" xlink:href="#CMSS17-66"/>
     <use transform="translate(183.530997 0)scale(0.996264)" xlink:href="#CMSS17-6f"/>
     <use transform="translate(230.374621 0)scale(0.996264)" xlink:href="#CMSS17-75"/>
     <use transform="translate(278.579564 0)scale(0.996264)" xlink:href="#CMSS17-6e"/>
     <use transform="translate(326.784507 0)scale(0.996264)" xlink:href="#CMSS17-64"/>
     <use transform="translate(374.98945 0)scale(0.996264)" xlink:href="#CMSS17-65"/>
     <use transform="translate(416.628272 0)scale(0.996264)" xlink:href="#CMSS17-72"/>
     <use transform="translate(479.767157 0)scale(0.996264)" xlink:href="#CMSS17-43"/>
     <use transform="translate(539.622929 0)scale(0.996264)" xlink:href="#CMSS17-6f"/>
     <use transform="translate(586.466552 0)scale(0.996264)" xlink:href="#CMSS17-6d"/>
     <use transform="translate(660.695807 0)scale(0.996264)" xlink:href="#CMSS17-62"/>
     <use transform="translate(708.90075 0)scale(0.996264)" xlink:href="#CMSS17-69"/>
     <use transform="translate(731.081473 0)scale(0.996264)" xlink:href="#CMSS17-6e"/>
     <use transform="translate(779.286416 0)scale(0.996264)" xlink:href="#CMSS17-61"/>
     <use transform="translate(824.208337 0)scale(0.996264)" xlink:href="#CMSS17-74"/>
     <use transform="translate(858.039903 0)scale(0.996264)" xlink:href="#CMSS17-69"/>
     <use transform="translate(880.220627 0)scale(0.996264)" xlink:href="#CMSS17-6f"/>
     <use transform="translate(927.06425 0)scale(0.996264)" xlink:href="#CMSS17-6e"/>
     <use transform="translate(975.269193 0)scale(0.996264)" xlink:href="#CMSS17-73"/>
    </g>
   </g>
  </g>
  <g id="axes_2">
   <g id="patch_11">
    <path d="M 340.66858 215.877819 
L 568.109332 215.877819 
L 568.109332 40.820957 
L 340.66858 40.820957 
z
" style="fill:#eaeaf2;"/>
   </g>
   <g id="matplotlib.axis_3">
    <g id="xtick_5">
     <g id="line2d_23">
      <path clip-path="url(#pca856d3530)" d="M 396.954422 215.877819 
L 396.954422 40.820957 
" style="fill:none;stroke:#ffffff;stroke-linecap:round;"/>
     </g>
     <g id="line2d_24"/>
     <g id="text_15">
      <!-- Moving Cylinder -->
      <g style="fill:#262626;" transform="translate(374.685449 275.830208)rotate(-45)scale(0.1 -0.1)">
       <defs>
        <path d="M 2675 2752 
L 2176 2752 
L 1747 1555 
C 1613 1164 1421 627 1389 352 
L 1382 352 
C 1370 467 1318 633 1286 748 
C 1248 889 1197 1056 1158 1171 
L 595 2752 
L 83 2752 
L 1094 0 
L 1664 0 
L 2675 2752 
z
" id="CMSS17-76" transform="scale(0.015625)"/>
        <path d="M 2675 2752 
L 2176 2752 
C 1632 1293 1446 701 1434 383 
L 1427 383 
C 1408 695 1126 1459 902 2006 
L 602 2752 
L 83 2752 
L 1216 14 
C 1146 -177 1043 -464 1011 -527 
C 870 -884 774 -884 672 -884 
C 646 -884 442 -877 211 -807 
L 250 -1229 
C 410 -1261 570 -1280 685 -1280 
C 845 -1280 1165 -1280 1459 -495 
L 2675 2752 
z
" id="CMSS17-79" transform="scale(0.015625)"/>
        <path d="M 947 4416 
L 474 4416 
L 474 0 
L 947 0 
L 947 4416 
z
" id="CMSS17-6c" transform="scale(0.015625)"/>
       </defs>
       <use transform="scale(0.996264)" xlink:href="#CMSS17-4d"/>
       <use transform="translate(81.67603 0)scale(0.996264)" xlink:href="#CMSS17-6f"/>
       <use transform="translate(128.519653 0)scale(0.996264)" xlink:href="#CMSS17-76"/>
       <use transform="translate(171.519795 0)scale(0.996264)" xlink:href="#CMSS17-69"/>
       <use transform="translate(193.700518 0)scale(0.996264)" xlink:href="#CMSS17-6e"/>
       <use transform="translate(241.905461 0)scale(0.996264)" xlink:href="#CMSS17-67"/>
       <use transform="translate(319.978198 0)scale(0.996264)" xlink:href="#CMSS17-43"/>
       <use transform="translate(379.833969 0)scale(0.996264)" xlink:href="#CMSS17-79"/>
       <use transform="translate(422.834111 0)scale(0.996264)" xlink:href="#CMSS17-6c"/>
       <use transform="translate(445.014834 0)scale(0.996264)" xlink:href="#CMSS17-69"/>
       <use transform="translate(467.195557 0)scale(0.996264)" xlink:href="#CMSS17-6e"/>
       <use transform="translate(515.4005 0)scale(0.996264)" xlink:href="#CMSS17-64"/>
       <use transform="translate(563.605443 0)scale(0.996264)" xlink:href="#CMSS17-65"/>
       <use transform="translate(605.244265 0)scale(0.996264)" xlink:href="#CMSS17-72"/>
      </g>
     </g>
    </g>
    <g id="xtick_6">
     <g id="line2d_25">
      <path clip-path="url(#pca856d3530)" d="M 511.82349 215.877819 
L 511.82349 40.820957 
" style="fill:none;stroke:#ffffff;stroke-linecap:round;"/>
     </g>
     <g id="line2d_26"/>
     <g id="text_16">
      <!-- Moving Sphere -->
      <g style="fill:#262626;" transform="translate(491.58964 271.75996)rotate(-45)scale(0.1 -0.1)">
       <defs>
        <path d="M 2797 4230 
C 2515 4396 2208 4544 1690 4544 
C 864 4544 333 3934 333 3309 
C 333 3064 403 2787 653 2504 
C 902 2220 1184 2143 1542 2053 
C 1690 2014 1939 1943 1984 1924 
C 2342 1782 2515 1454 2515 1144 
C 2515 738 2202 307 1645 307 
C 1453 307 890 339 358 829 
L 269 320 
C 794 -64 1363 -128 1651 -128 
C 2438 -128 3002 494 3002 1202 
C 3002 1460 2925 1789 2656 2092 
C 2394 2381 2163 2446 1638 2588 
C 1338 2665 1146 2717 986 2916 
C 877 3058 819 3193 819 3367 
C 819 3728 1126 4121 1690 4121 
C 1971 4121 2336 4063 2707 3715 
L 2797 4230 
z
" id="CMSS17-53" transform="scale(0.015625)"/>
       </defs>
       <use transform="scale(0.996264)" xlink:href="#CMSS17-4d"/>
       <use transform="translate(81.67603 0)scale(0.996264)" xlink:href="#CMSS17-6f"/>
       <use transform="translate(128.519653 0)scale(0.996264)" xlink:href="#CMSS17-76"/>
       <use transform="translate(171.519795 0)scale(0.996264)" xlink:href="#CMSS17-69"/>
       <use transform="translate(193.700518 0)scale(0.996264)" xlink:href="#CMSS17-6e"/>
       <use transform="translate(241.905461 0)scale(0.996264)" xlink:href="#CMSS17-67"/>
       <use transform="translate(319.978198 0)scale(0.996264)" xlink:href="#CMSS17-53"/>
       <use transform="translate(372.026714 0)scale(0.996264)" xlink:href="#CMSS17-70"/>
       <use transform="translate(420.231657 0)scale(0.996264)" xlink:href="#CMSS17-68"/>
       <use transform="translate(468.4366 0)scale(0.996264)" xlink:href="#CMSS17-65"/>
       <use transform="translate(510.075422 0)scale(0.996264)" xlink:href="#CMSS17-72"/>
       <use transform="translate(541.985195 0)scale(0.996264)" xlink:href="#CMSS17-65"/>
      </g>
     </g>
    </g>
   </g>
   <g id="matplotlib.axis_4">
    <g id="ytick_8">
     <g id="line2d_27">
      <path clip-path="url(#pca856d3530)" d="M 340.66858 215.877819 
L 568.109332 215.877819 
" style="fill:none;stroke:#ffffff;stroke-linecap:round;"/>
     </g>
     <g id="line2d_28"/>
     <g id="text_17">
      <!-- $\mathdefault{0}$ -->
      <g style="fill:#262626;" transform="translate(328.687244 219.337068)scale(0.1 -0.1)">
       <use transform="scale(0.996264)" xlink:href="#CMR17-30"/>
      </g>
     </g>
    </g>
    <g id="ytick_9">
     <g id="line2d_29">
      <path clip-path="url(#pca856d3530)" d="M 340.66858 186.857659 
L 568.109332 186.857659 
" style="fill:none;stroke:#ffffff;stroke-linecap:round;"/>
     </g>
     <g id="line2d_30"/>
     <g id="text_18">
      <!-- $\mathdefault{2000}$ -->
      <g style="fill:#262626;" transform="translate(313.743239 190.316908)scale(0.1 -0.1)">
       <use transform="scale(0.996264)" xlink:href="#CMR17-32"/>
       <use transform="translate(45.690477 0)scale(0.996264)" xlink:href="#CMR17-30"/>
       <use transform="translate(91.380954 0)scale(0.996264)" xlink:href="#CMR17-30"/>
       <use transform="translate(137.071431 0)scale(0.996264)" xlink:href="#CMR17-30"/>
      </g>
     </g>
    </g>
    <g id="ytick_10">
     <g id="line2d_31">
      <path clip-path="url(#pca856d3530)" d="M 340.66858 157.837498 
L 568.109332 157.837498 
" style="fill:none;stroke:#ffffff;stroke-linecap:round;"/>
     </g>
     <g id="line2d_32"/>
     <g id="text_19">
      <!-- $\mathdefault{4000}$ -->
      <g style="fill:#262626;" transform="translate(313.743239 161.296748)scale(0.1 -0.1)">
       <use transform="scale(0.996264)" xlink:href="#CMR17-34"/>
       <use transform="translate(45.690477 0)scale(0.996264)" xlink:href="#CMR17-30"/>
       <use transform="translate(91.380954 0)scale(0.996264)" xlink:href="#CMR17-30"/>
       <use transform="translate(137.071431 0)scale(0.996264)" xlink:href="#CMR17-30"/>
      </g>
     </g>
    </g>
    <g id="ytick_11">
     <g id="line2d_33">
      <path clip-path="url(#pca856d3530)" d="M 340.66858 128.817338 
L 568.109332 128.817338 
" style="fill:none;stroke:#ffffff;stroke-linecap:round;"/>
     </g>
     <g id="line2d_34"/>
     <g id="text_20">
      <!-- $\mathdefault{6000}$ -->
      <g style="fill:#262626;" transform="translate(313.743239 132.276587)scale(0.1 -0.1)">
       <use transform="scale(0.996264)" xlink:href="#CMR17-36"/>
       <use transform="translate(45.690477 0)scale(0.996264)" xlink:href="#CMR17-30"/>
       <use transform="translate(91.380954 0)scale(0.996264)" xlink:href="#CMR17-30"/>
       <use transform="translate(137.071431 0)scale(0.996264)" xlink:href="#CMR17-30"/>
      </g>
     </g>
    </g>
    <g id="ytick_12">
     <g id="line2d_35">
      <path clip-path="url(#pca856d3530)" d="M 340.66858 99.797178 
L 568.109332 99.797178 
" style="fill:none;stroke:#ffffff;stroke-linecap:round;"/>
     </g>
     <g id="line2d_36"/>
     <g id="text_21">
      <!-- $\mathdefault{8000}$ -->
      <g style="fill:#262626;" transform="translate(313.743239 103.256427)scale(0.1 -0.1)">
       <defs>
        <path d="M 1741 2289 
C 2144 2494 2554 2803 2554 3298 
C 2554 3884 1990 4224 1472 4224 
C 890 4224 378 3800 378 3215 
C 378 3054 416 2777 666 2533 
C 730 2469 998 2276 1171 2154 
C 883 2006 211 1652 211 945 
C 211 282 838 -128 1459 -128 
C 2144 -128 2720 366 2720 1022 
C 2720 1607 2330 1877 2074 2051 
L 1741 2289 
z
M 902 2855 
C 851 2887 595 3086 595 3388 
C 595 3781 998 4076 1459 4076 
C 1965 4076 2336 3716 2336 3298 
C 2336 2700 1670 2359 1638 2359 
C 1632 2359 1626 2359 1574 2398 
L 902 2855 
z
M 2080 1536 
C 2176 1466 2483 1253 2483 861 
C 2483 385 2010 25 1472 25 
C 890 25 448 443 448 951 
C 448 1459 838 1884 1280 2083 
L 2080 1536 
z
" id="CMR17-38" transform="scale(0.015625)"/>
       </defs>
       <use transform="scale(0.996264)" xlink:href="#CMR17-38"/>
       <use transform="translate(45.690477 0)scale(0.996264)" xlink:href="#CMR17-30"/>
       <use transform="translate(91.380954 0)scale(0.996264)" xlink:href="#CMR17-30"/>
       <use transform="translate(137.071431 0)scale(0.996264)" xlink:href="#CMR17-30"/>
      </g>
     </g>
    </g>
    <g id="ytick_13">
     <g id="line2d_37">
      <path clip-path="url(#pca856d3530)" d="M 340.66858 70.777017 
L 568.109332 70.777017 
" style="fill:none;stroke:#ffffff;stroke-linecap:round;"/>
     </g>
     <g id="line2d_38"/>
     <g id="text_22">
      <!-- $\mathdefault{10000}$ -->
      <g style="fill:#262626;" transform="translate(308.761903 74.236266)scale(0.1 -0.1)">
       <use transform="scale(0.996264)" xlink:href="#CMR17-31"/>
       <use transform="translate(45.690477 0)scale(0.996264)" xlink:href="#CMR17-30"/>
       <use transform="translate(91.380954 0)scale(0.996264)" xlink:href="#CMR17-30"/>
       <use transform="translate(137.071431 0)scale(0.996264)" xlink:href="#CMR17-30"/>
       <use transform="translate(182.761908 0)scale(0.996264)" xlink:href="#CMR17-30"/>
      </g>
     </g>
    </g>
    <g id="ytick_14">
     <g id="line2d_39">
      <path clip-path="url(#pca856d3530)" d="M 340.66858 41.756857 
L 568.109332 41.756857 
" style="fill:none;stroke:#ffffff;stroke-linecap:round;"/>
     </g>
     <g id="line2d_40"/>
     <g id="text_23">
      <!-- $\mathdefault{12000}$ -->
      <g style="fill:#262626;" transform="translate(308.761903 45.216106)scale(0.1 -0.1)">
       <use transform="scale(0.996264)" xlink:href="#CMR17-31"/>
       <use transform="translate(45.690477 0)scale(0.996264)" xlink:href="#CMR17-32"/>
       <use transform="translate(91.380954 0)scale(0.996264)" xlink:href="#CMR17-30"/>
       <use transform="translate(137.071431 0)scale(0.996264)" xlink:href="#CMR17-30"/>
       <use transform="translate(182.761908 0)scale(0.996264)" xlink:href="#CMR17-30"/>
      </g>
     </g>
    </g>
    <g id="text_24">
     <!-- \# Experiments -->
     <g style="fill:#262626;" transform="translate(302.049875 171.183161)rotate(-90)scale(0.14 -0.14)">
      <use transform="scale(0.996264)" xlink:href="#CMSS17-23"/>
      <use transform="translate(109.301849 0)scale(0.996264)" xlink:href="#CMSS17-45"/>
      <use transform="translate(165.193862 0)scale(0.996264)" xlink:href="#CMSS17-78"/>
      <use transform="translate(208.194004 0)scale(0.996264)" xlink:href="#CMSS17-70"/>
      <use transform="translate(259.001386 0)scale(0.996264)" xlink:href="#CMSS17-65"/>
      <use transform="translate(300.640208 0)scale(0.996264)" xlink:href="#CMSS17-72"/>
      <use transform="translate(332.54998 0)scale(0.996264)" xlink:href="#CMSS17-69"/>
      <use transform="translate(354.730703 0)scale(0.996264)" xlink:href="#CMSS17-6d"/>
      <use transform="translate(428.959958 0)scale(0.996264)" xlink:href="#CMSS17-65"/>
      <use transform="translate(470.59878 0)scale(0.996264)" xlink:href="#CMSS17-6e"/>
      <use transform="translate(518.803723 0)scale(0.996264)" xlink:href="#CMSS17-74"/>
      <use transform="translate(552.63529 0)scale(0.996264)" xlink:href="#CMSS17-73"/>
     </g>
    </g>
   </g>
   <g id="patch_12">
    <path clip-path="url(#pca856d3530)" d="M 351.006796 215.877819 
L 442.902049 215.877819 
L 442.902049 49.156998 
L 351.006796 49.156998 
z
" style="fill:#4c72b0;"/>
   </g>
   <g id="patch_13">
    <path clip-path="url(#pca856d3530)" d="M 465.875863 215.877819 
L 557.771116 215.877819 
L 557.771116 49.156998 
L 465.875863 49.156998 
z
" style="fill:#4c72b0;"/>
   </g>
   <g id="patch_14">
    <path d="M 340.66858 215.877819 
L 340.66858 40.820957 
" style="fill:none;"/>
   </g>
   <g id="patch_15">
    <path d="M 568.109332 215.877819 
L 568.109332 40.820957 
" style="fill:none;"/>
   </g>
   <g id="patch_16">
    <path d="M 340.66858 215.877819 
L 568.109332 215.877819 
" style="fill:none;"/>
   </g>
   <g id="patch_17">
    <path d="M 340.66858 40.820957 
L 568.109332 40.820957 
" style="fill:none;"/>
   </g>
   <g id="text_25">
    <!-- Histogram of Moving Object -->
    <g style="fill:#262626;" transform="translate(372.908862 34.820957)scale(0.14 -0.14)">
     <defs>
      <path d="M 4096 2201 
C 4096 3541 3219 4544 2214 4544 
C 1210 4544 333 3535 333 2201 
C 333 855 1222 -128 2214 -128 
C 3206 -128 4096 855 4096 2201 
z
M 2214 275 
C 1510 275 870 1067 870 2285 
C 870 3470 1549 4140 2214 4140 
C 2880 4140 3558 3470 3558 2285 
C 3558 1061 2912 275 2214 275 
z
" id="CMSS17-4f" transform="scale(0.015625)"/>
      <path d="M 1114 4224 
L 576 4224 
L 576 3686 
L 1114 3686 
L 1114 4224 
z
M -371 -1063 
C -167 -1191 83 -1280 352 -1280 
C 755 -1280 1114 -935 1114 -368 
L 1114 2752 
L 640 2752 
L 640 -425 
C 640 -814 346 -871 179 -871 
C 38 -871 -128 -826 -275 -674 
L -371 -1063 
z
" id="CMSS17-6a" transform="scale(0.015625)"/>
     </defs>
     <use transform="scale(0.996264)" xlink:href="#CMSS17-48"/>
     <use transform="translate(66.061519 0)scale(0.996264)" xlink:href="#CMSS17-69"/>
     <use transform="translate(88.242242 0)scale(0.996264)" xlink:href="#CMSS17-73"/>
     <use transform="translate(124.155784 0)scale(0.996264)" xlink:href="#CMSS17-74"/>
     <use transform="translate(157.987351 0)scale(0.996264)" xlink:href="#CMSS17-6f"/>
     <use transform="translate(204.830974 0)scale(0.996264)" xlink:href="#CMSS17-67"/>
     <use transform="translate(251.674598 0)scale(0.996264)" xlink:href="#CMSS17-72"/>
     <use transform="translate(283.584371 0)scale(0.996264)" xlink:href="#CMSS17-61"/>
     <use transform="translate(328.506291 0)scale(0.996264)" xlink:href="#CMSS17-6d"/>
     <use transform="translate(433.964658 0)scale(0.996264)" xlink:href="#CMSS17-6f"/>
     <use transform="translate(480.808282 0)scale(0.996264)" xlink:href="#CMSS17-66"/>
     <use transform="translate(540.664053 0)scale(0.996264)" xlink:href="#CMSS17-4d"/>
     <use transform="translate(622.340083 0)scale(0.996264)" xlink:href="#CMSS17-6f"/>
     <use transform="translate(669.183707 0)scale(0.996264)" xlink:href="#CMSS17-76"/>
     <use transform="translate(712.183849 0)scale(0.996264)" xlink:href="#CMSS17-69"/>
     <use transform="translate(734.364572 0)scale(0.996264)" xlink:href="#CMSS17-6e"/>
     <use transform="translate(782.569515 0)scale(0.996264)" xlink:href="#CMSS17-67"/>
     <use transform="translate(860.642251 0)scale(0.996264)" xlink:href="#CMSS17-4f"/>
     <use transform="translate(929.666506 0)scale(0.996264)" xlink:href="#CMSS17-62"/>
     <use transform="translate(977.871449 0)scale(0.996264)" xlink:href="#CMSS17-6a"/>
     <use transform="translate(1002.654535 0)scale(0.996264)" xlink:href="#CMSS17-65"/>
     <use transform="translate(1044.293357 0)scale(0.996264)" xlink:href="#CMSS17-63"/>
     <use transform="translate(1085.932179 0)scale(0.996264)" xlink:href="#CMSS17-74"/>
    </g>
   </g>
  </g>
  <g id="axes_3">
   <g id="patch_18">
    <path d="M 627.213913 215.877819 
L 854.654666 215.877819 
L 854.654666 40.820957 
L 627.213913 40.820957 
z
" style="fill:#eaeaf2;"/>
   </g>
   <g id="matplotlib.axis_5">
    <g id="xtick_7">
     <g id="line2d_41">
      <path clip-path="url(#pa713931653)" d="M 667.08989 215.877819 
L 667.08989 40.820957 
" style="fill:none;stroke:#ffffff;stroke-linecap:round;"/>
     </g>
     <g id="line2d_42"/>
     <g id="text_26">
      <!-- Move X -->
      <g style="fill:#262626;" transform="translate(657.295836 250.880369)rotate(-45)scale(0.1 -0.1)">
       <defs>
        <path d="M 2214 2328 
L 3661 4416 
L 3072 4416 
L 1952 2761 
L 800 4416 
L 166 4416 
L 1690 2328 
L 83 0 
L 672 0 
L 1952 1940 
L 3277 0 
L 3910 0 
L 2214 2328 
z
" id="CMSS17-58" transform="scale(0.015625)"/>
       </defs>
       <use transform="scale(0.996264)" xlink:href="#CMSS17-4d"/>
       <use transform="translate(81.67603 0)scale(0.996264)" xlink:href="#CMSS17-6f"/>
       <use transform="translate(128.519653 0)scale(0.996264)" xlink:href="#CMSS17-76"/>
       <use transform="translate(171.519795 0)scale(0.996264)" xlink:href="#CMSS17-65"/>
       <use transform="translate(244.38773 0)scale(0.996264)" xlink:href="#CMSS17-58"/>
      </g>
     </g>
    </g>
    <g id="xtick_8">
     <g id="line2d_43">
      <path clip-path="url(#pa713931653)" d="M 740.93429 215.877819 
L 740.93429 40.820957 
" style="fill:none;stroke:#ffffff;stroke-linecap:round;"/>
     </g>
     <g id="line2d_44"/>
     <g id="text_27">
      <!-- Move Y -->
      <g style="fill:#262626;" transform="translate(731.140236 250.880369)rotate(-45)scale(0.1 -0.1)">
       <defs>
        <path d="M 3974 4416 
L 3424 4416 
L 2432 2875 
C 2355 2754 2138 2424 2035 2239 
L 1722 2742 
L 646 4416 
L 19 4416 
L 1734 1769 
L 1734 0 
L 2259 0 
L 2259 1762 
L 3974 4416 
z
" id="CMSS17-59" transform="scale(0.015625)"/>
       </defs>
       <use transform="scale(0.996264)" xlink:href="#CMSS17-4d"/>
       <use transform="translate(81.67603 0)scale(0.996264)" xlink:href="#CMSS17-6f"/>
       <use transform="translate(128.519653 0)scale(0.996264)" xlink:href="#CMSS17-76"/>
       <use transform="translate(171.519795 0)scale(0.996264)" xlink:href="#CMSS17-65"/>
       <use transform="translate(244.38773 0)scale(0.996264)" xlink:href="#CMSS17-59"/>
      </g>
     </g>
    </g>
    <g id="xtick_9">
     <g id="line2d_45">
      <path clip-path="url(#pa713931653)" d="M 814.77869 215.877819 
L 814.77869 40.820957 
" style="fill:none;stroke:#ffffff;stroke-linecap:round;"/>
     </g>
     <g id="line2d_46"/>
     <g id="text_28">
      <!-- Move Z -->
      <g style="fill:#262626;" transform="translate(805.180327 250.488987)rotate(-45)scale(0.1 -0.1)">
       <defs>
        <path d="M 3341 4153 
L 3341 4416 
L 416 4416 
L 416 4012 
L 1613 4012 
C 1690 4012 1766 4019 1843 4019 
L 2662 4019 
L 333 275 
L 333 0 
L 3373 0 
L 3373 422 
L 2803 422 
C 2272 422 1734 409 1203 409 
L 1011 409 
L 3341 4153 
z
" id="CMSS17-5a" transform="scale(0.015625)"/>
       </defs>
       <use transform="scale(0.996264)" xlink:href="#CMSS17-4d"/>
       <use transform="translate(81.67603 0)scale(0.996264)" xlink:href="#CMSS17-6f"/>
       <use transform="translate(128.519653 0)scale(0.996264)" xlink:href="#CMSS17-76"/>
       <use transform="translate(171.519795 0)scale(0.996264)" xlink:href="#CMSS17-65"/>
       <use transform="translate(244.38773 0)scale(0.996264)" xlink:href="#CMSS17-5a"/>
      </g>
     </g>
    </g>
   </g>
   <g id="matplotlib.axis_6">
    <g id="ytick_15">
     <g id="line2d_47">
      <path clip-path="url(#pa713931653)" d="M 627.213913 215.877819 
L 854.654666 215.877819 
" style="fill:none;stroke:#ffffff;stroke-linecap:round;"/>
     </g>
     <g id="line2d_48"/>
     <g id="text_29">
      <!-- $\mathdefault{0}$ -->
      <g style="fill:#262626;" transform="translate(615.232578 219.337068)scale(0.1 -0.1)">
       <use transform="scale(0.996264)" xlink:href="#CMR17-30"/>
      </g>
     </g>
    </g>
    <g id="ytick_16">
     <g id="line2d_49">
      <path clip-path="url(#pa713931653)" d="M 627.213913 192.448811 
L 854.654666 192.448811 
" style="fill:none;stroke:#ffffff;stroke-linecap:round;"/>
     </g>
     <g id="line2d_50"/>
     <g id="text_30">
      <!-- $\mathdefault{500}$ -->
      <g style="fill:#262626;" transform="translate(605.269908 195.90806)scale(0.1 -0.1)">
       <use transform="scale(0.996264)" xlink:href="#CMR17-35"/>
       <use transform="translate(45.690477 0)scale(0.996264)" xlink:href="#CMR17-30"/>
       <use transform="translate(91.380954 0)scale(0.996264)" xlink:href="#CMR17-30"/>
      </g>
     </g>
    </g>
    <g id="ytick_17">
     <g id="line2d_51">
      <path clip-path="url(#pa713931653)" d="M 627.213913 169.019803 
L 854.654666 169.019803 
" style="fill:none;stroke:#ffffff;stroke-linecap:round;"/>
     </g>
     <g id="line2d_52"/>
     <g id="text_31">
      <!-- $\mathdefault{1000}$ -->
      <g style="fill:#262626;" transform="translate(600.288572 172.479052)scale(0.1 -0.1)">
       <use transform="scale(0.996264)" xlink:href="#CMR17-31"/>
       <use transform="translate(45.690477 0)scale(0.996264)" xlink:href="#CMR17-30"/>
       <use transform="translate(91.380954 0)scale(0.996264)" xlink:href="#CMR17-30"/>
       <use transform="translate(137.071431 0)scale(0.996264)" xlink:href="#CMR17-30"/>
      </g>
     </g>
    </g>
    <g id="ytick_18">
     <g id="line2d_53">
      <path clip-path="url(#pa713931653)" d="M 627.213913 145.590795 
L 854.654666 145.590795 
" style="fill:none;stroke:#ffffff;stroke-linecap:round;"/>
     </g>
     <g id="line2d_54"/>
     <g id="text_32">
      <!-- $\mathdefault{1500}$ -->
      <g style="fill:#262626;" transform="translate(600.288572 149.050044)scale(0.1 -0.1)">
       <use transform="scale(0.996264)" xlink:href="#CMR17-31"/>
       <use transform="translate(45.690477 0)scale(0.996264)" xlink:href="#CMR17-35"/>
       <use transform="translate(91.380954 0)scale(0.996264)" xlink:href="#CMR17-30"/>
       <use transform="translate(137.071431 0)scale(0.996264)" xlink:href="#CMR17-30"/>
      </g>
     </g>
    </g>
    <g id="ytick_19">
     <g id="line2d_55">
      <path clip-path="url(#pa713931653)" d="M 627.213913 122.161787 
L 854.654666 122.161787 
" style="fill:none;stroke:#ffffff;stroke-linecap:round;"/>
     </g>
     <g id="line2d_56"/>
     <g id="text_33">
      <!-- $\mathdefault{2000}$ -->
      <g style="fill:#262626;" transform="translate(600.288572 125.621036)scale(0.1 -0.1)">
       <use transform="scale(0.996264)" xlink:href="#CMR17-32"/>
       <use transform="translate(45.690477 0)scale(0.996264)" xlink:href="#CMR17-30"/>
       <use transform="translate(91.380954 0)scale(0.996264)" xlink:href="#CMR17-30"/>
       <use transform="translate(137.071431 0)scale(0.996264)" xlink:href="#CMR17-30"/>
      </g>
     </g>
    </g>
    <g id="ytick_20">
     <g id="line2d_57">
      <path clip-path="url(#pa713931653)" d="M 627.213913 98.732779 
L 854.654666 98.732779 
" style="fill:none;stroke:#ffffff;stroke-linecap:round;"/>
     </g>
     <g id="line2d_58"/>
     <g id="text_34">
      <!-- $\mathdefault{2500}$ -->
      <g style="fill:#262626;" transform="translate(600.288572 102.192028)scale(0.1 -0.1)">
       <use transform="scale(0.996264)" xlink:href="#CMR17-32"/>
       <use transform="translate(45.690477 0)scale(0.996264)" xlink:href="#CMR17-35"/>
       <use transform="translate(91.380954 0)scale(0.996264)" xlink:href="#CMR17-30"/>
       <use transform="translate(137.071431 0)scale(0.996264)" xlink:href="#CMR17-30"/>
      </g>
     </g>
    </g>
    <g id="ytick_21">
     <g id="line2d_59">
      <path clip-path="url(#pa713931653)" d="M 627.213913 75.303771 
L 854.654666 75.303771 
" style="fill:none;stroke:#ffffff;stroke-linecap:round;"/>
     </g>
     <g id="line2d_60"/>
     <g id="text_35">
      <!-- $\mathdefault{3000}$ -->
      <g style="fill:#262626;" transform="translate(600.288572 78.76302)scale(0.1 -0.1)">
       <use transform="scale(0.996264)" xlink:href="#CMR17-33"/>
       <use transform="translate(45.690477 0)scale(0.996264)" xlink:href="#CMR17-30"/>
       <use transform="translate(91.380954 0)scale(0.996264)" xlink:href="#CMR17-30"/>
       <use transform="translate(137.071431 0)scale(0.996264)" xlink:href="#CMR17-30"/>
      </g>
     </g>
    </g>
    <g id="ytick_22">
     <g id="line2d_61">
      <path clip-path="url(#pa713931653)" d="M 627.213913 51.874763 
L 854.654666 51.874763 
" style="fill:none;stroke:#ffffff;stroke-linecap:round;"/>
     </g>
     <g id="line2d_62"/>
     <g id="text_36">
      <!-- $\mathdefault{3500}$ -->
      <g style="fill:#262626;" transform="translate(600.288572 55.334012)scale(0.1 -0.1)">
       <use transform="scale(0.996264)" xlink:href="#CMR17-33"/>
       <use transform="translate(45.690477 0)scale(0.996264)" xlink:href="#CMR17-35"/>
       <use transform="translate(91.380954 0)scale(0.996264)" xlink:href="#CMR17-30"/>
       <use transform="translate(137.071431 0)scale(0.996264)" xlink:href="#CMR17-30"/>
      </g>
     </g>
    </g>
    <g id="text_37">
     <!-- \# Experiments -->
     <g style="fill:#262626;" transform="translate(593.576544 171.183161)rotate(-90)scale(0.14 -0.14)">
      <use transform="scale(0.996264)" xlink:href="#CMSS17-23"/>
      <use transform="translate(109.301849 0)scale(0.996264)" xlink:href="#CMSS17-45"/>
      <use transform="translate(165.193862 0)scale(0.996264)" xlink:href="#CMSS17-78"/>
      <use transform="translate(208.194004 0)scale(0.996264)" xlink:href="#CMSS17-70"/>
      <use transform="translate(259.001386 0)scale(0.996264)" xlink:href="#CMSS17-65"/>
      <use transform="translate(300.640208 0)scale(0.996264)" xlink:href="#CMSS17-72"/>
      <use transform="translate(332.54998 0)scale(0.996264)" xlink:href="#CMSS17-69"/>
      <use transform="translate(354.730703 0)scale(0.996264)" xlink:href="#CMSS17-6d"/>
      <use transform="translate(428.959958 0)scale(0.996264)" xlink:href="#CMSS17-65"/>
      <use transform="translate(470.59878 0)scale(0.996264)" xlink:href="#CMSS17-6e"/>
      <use transform="translate(518.803723 0)scale(0.996264)" xlink:href="#CMSS17-74"/>
      <use transform="translate(552.63529 0)scale(0.996264)" xlink:href="#CMSS17-73"/>
     </g>
    </g>
   </g>
   <g id="patch_19">
    <path clip-path="url(#pa713931653)" d="M 637.552129 215.877819 
L 696.62765 215.877819 
L 696.62765 49.156998 
L 637.552129 49.156998 
z
" style="fill:#4c72b0;"/>
   </g>
   <g id="patch_20">
    <path clip-path="url(#pa713931653)" d="M 711.39653 215.877819 
L 770.47205 215.877819 
L 770.47205 49.156998 
L 711.39653 49.156998 
z
" style="fill:#4c72b0;"/>
   </g>
   <g id="patch_21">
    <path clip-path="url(#pa713931653)" d="M 785.24093 215.877819 
L 844.31645 215.877819 
L 844.31645 49.156998 
L 785.24093 49.156998 
z
" style="fill:#4c72b0;"/>
   </g>
   <g id="patch_22">
    <path d="M 627.213913 215.877819 
L 627.213913 40.820957 
" style="fill:none;"/>
   </g>
   <g id="patch_23">
    <path d="M 854.654666 215.877819 
L 854.654666 40.820957 
" style="fill:none;"/>
   </g>
   <g id="patch_24">
    <path d="M 627.213913 215.877819 
L 854.654666 215.877819 
" style="fill:none;"/>
   </g>
   <g id="patch_25">
    <path d="M 627.213913 40.820957 
L 854.654666 40.820957 
" style="fill:none;"/>
   </g>
   <g id="text_38">
    <!-- Moving Sphere Do-operation Types -->
    <g style="fill:#262626;" transform="translate(640.050344 34.820957)scale(0.14 -0.14)">
     <defs>
      <path d="M 570 4416 
L 570 0 
L 2144 0 
C 3194 0 4000 981 4000 2169 
C 4000 3396 3194 4416 2144 4416 
L 570 4416 
z
M 1094 358 
L 1094 4057 
L 2003 4057 
C 2861 4057 3475 3275 3475 2169 
C 3475 1108 2867 358 2003 358 
L 1094 358 
z
" id="CMSS17-44" transform="scale(0.015625)"/>
      <path d="M 1664 1216 
L 1664 1587 
L 64 1587 
L 64 1216 
L 1664 1216 
z
" id="CMSS17-2d" transform="scale(0.015625)"/>
      <path d="M 2317 3987 
L 2848 3987 
C 2925 3987 3002 3980 3078 3980 
L 3878 3980 
L 3878 4396 
L 218 4396 
L 218 3980 
L 1018 3980 
C 1094 3980 1171 3987 1248 3987 
L 1779 3987 
L 1779 0 
L 2317 0 
L 2317 3987 
z
" id="CMSS17-54" transform="scale(0.015625)"/>
     </defs>
     <use transform="scale(0.996264)" xlink:href="#CMSS17-4d"/>
     <use transform="translate(81.67603 0)scale(0.996264)" xlink:href="#CMSS17-6f"/>
     <use transform="translate(128.519653 0)scale(0.996264)" xlink:href="#CMSS17-76"/>
     <use transform="translate(171.519795 0)scale(0.996264)" xlink:href="#CMSS17-69"/>
     <use transform="translate(193.700518 0)scale(0.996264)" xlink:href="#CMSS17-6e"/>
     <use transform="translate(241.905461 0)scale(0.996264)" xlink:href="#CMSS17-67"/>
     <use transform="translate(319.978198 0)scale(0.996264)" xlink:href="#CMSS17-53"/>
     <use transform="translate(372.026714 0)scale(0.996264)" xlink:href="#CMSS17-70"/>
     <use transform="translate(420.231657 0)scale(0.996264)" xlink:href="#CMSS17-68"/>
     <use transform="translate(468.4366 0)scale(0.996264)" xlink:href="#CMSS17-65"/>
     <use transform="translate(510.075422 0)scale(0.996264)" xlink:href="#CMSS17-72"/>
     <use transform="translate(541.985195 0)scale(0.996264)" xlink:href="#CMSS17-65"/>
     <use transform="translate(614.853129 0)scale(0.996264)" xlink:href="#CMSS17-44"/>
     <use transform="translate(682.395971 0)scale(0.996264)" xlink:href="#CMSS17-6f"/>
     <use transform="translate(729.239595 0)scale(0.996264)" xlink:href="#CMSS17-2d"/>
     <use transform="translate(760.468707 0)scale(0.996264)" xlink:href="#CMSS17-6f"/>
     <use transform="translate(807.312331 0)scale(0.996264)" xlink:href="#CMSS17-70"/>
     <use transform="translate(858.119713 0)scale(0.996264)" xlink:href="#CMSS17-65"/>
     <use transform="translate(899.758535 0)scale(0.996264)" xlink:href="#CMSS17-72"/>
     <use transform="translate(931.668307 0)scale(0.996264)" xlink:href="#CMSS17-61"/>
     <use transform="translate(976.590228 0)scale(0.996264)" xlink:href="#CMSS17-74"/>
     <use transform="translate(1010.421795 0)scale(0.996264)" xlink:href="#CMSS17-69"/>
     <use transform="translate(1032.602518 0)scale(0.996264)" xlink:href="#CMSS17-6f"/>
     <use transform="translate(1079.446141 0)scale(0.996264)" xlink:href="#CMSS17-6e"/>
     <use transform="translate(1158.880197 0)scale(0.996264)" xlink:href="#CMSS17-54"/>
     <use transform="translate(1214.892396 0)scale(0.996264)" xlink:href="#CMSS17-79"/>
     <use transform="translate(1257.892537 0)scale(0.996264)" xlink:href="#CMSS17-70"/>
     <use transform="translate(1308.699919 0)scale(0.996264)" xlink:href="#CMSS17-65"/>
     <use transform="translate(1350.338741 0)scale(0.996264)" xlink:href="#CMSS17-73"/>
    </g>
   </g>
  </g>
  <g id="axes_4">
   <g id="patch_26">
    <path d="M 913.759247 215.877819 
L 1141.2 215.877819 
L 1141.2 40.820957 
L 913.759247 40.820957 
z
" style="fill:#eaeaf2;"/>
   </g>
   <g id="matplotlib.axis_7">
    <g id="xtick_10">
     <g id="line2d_63">
      <path clip-path="url(#pd3d9fcd8a0)" d="M 945.862129 215.877819 
L 945.862129 40.820957 
" style="fill:none;stroke:#ffffff;stroke-linecap:round;"/>
     </g>
     <g id="line2d_64"/>
     <g id="text_39">
      <!-- Flip -->
      <g style="fill:#262626;" transform="translate(942.114756 238.787006)rotate(-45)scale(0.1 -0.1)">
       <defs>
        <path d="M 2918 1984 
L 2918 2374 
L 1101 2374 
L 1101 3993 
L 1882 3993 
C 1958 3993 2035 3987 2112 3987 
L 3168 3987 
L 3168 4403 
L 563 4403 
L 563 0 
L 1101 0 
L 1101 1984 
L 2918 1984 
z
" id="CMSS17-46" transform="scale(0.015625)"/>
       </defs>
       <use transform="scale(0.996264)" xlink:href="#CMSS17-46"/>
       <use transform="translate(53.289559 0)scale(0.996264)" xlink:href="#CMSS17-6c"/>
       <use transform="translate(75.470282 0)scale(0.996264)" xlink:href="#CMSS17-69"/>
       <use transform="translate(97.651005 0)scale(0.996264)" xlink:href="#CMSS17-70"/>
      </g>
     </g>
    </g>
    <g id="xtick_11">
     <g id="line2d_65">
      <path clip-path="url(#pd3d9fcd8a0)" d="M 1000.273792 215.877819 
L 1000.273792 40.820957 
" style="fill:none;stroke:#ffffff;stroke-linecap:round;"/>
     </g>
     <g id="line2d_66"/>
     <g id="text_40">
      <!-- Move X -->
      <g style="fill:#262626;" transform="translate(990.479738 250.880369)rotate(-45)scale(0.1 -0.1)">
       <use transform="scale(0.996264)" xlink:href="#CMSS17-4d"/>
       <use transform="translate(81.67603 0)scale(0.996264)" xlink:href="#CMSS17-6f"/>
       <use transform="translate(128.519653 0)scale(0.996264)" xlink:href="#CMSS17-76"/>
       <use transform="translate(171.519795 0)scale(0.996264)" xlink:href="#CMSS17-65"/>
       <use transform="translate(244.38773 0)scale(0.996264)" xlink:href="#CMSS17-58"/>
      </g>
     </g>
    </g>
    <g id="xtick_12">
     <g id="line2d_67">
      <path clip-path="url(#pd3d9fcd8a0)" d="M 1054.685455 215.877819 
L 1054.685455 40.820957 
" style="fill:none;stroke:#ffffff;stroke-linecap:round;"/>
     </g>
     <g id="line2d_68"/>
     <g id="text_41">
      <!-- Move Y -->
      <g style="fill:#262626;" transform="translate(1044.891402 250.880369)rotate(-45)scale(0.1 -0.1)">
       <use transform="scale(0.996264)" xlink:href="#CMSS17-4d"/>
       <use transform="translate(81.67603 0)scale(0.996264)" xlink:href="#CMSS17-6f"/>
       <use transform="translate(128.519653 0)scale(0.996264)" xlink:href="#CMSS17-76"/>
       <use transform="translate(171.519795 0)scale(0.996264)" xlink:href="#CMSS17-65"/>
       <use transform="translate(244.38773 0)scale(0.996264)" xlink:href="#CMSS17-59"/>
      </g>
     </g>
    </g>
    <g id="xtick_13">
     <g id="line2d_69">
      <path clip-path="url(#pd3d9fcd8a0)" d="M 1109.097119 215.877819 
L 1109.097119 40.820957 
" style="fill:none;stroke:#ffffff;stroke-linecap:round;"/>
     </g>
     <g id="line2d_70"/>
     <g id="text_42">
      <!-- Move Z -->
      <g style="fill:#262626;" transform="translate(1099.498756 250.488987)rotate(-45)scale(0.1 -0.1)">
       <use transform="scale(0.996264)" xlink:href="#CMSS17-4d"/>
       <use transform="translate(81.67603 0)scale(0.996264)" xlink:href="#CMSS17-6f"/>
       <use transform="translate(128.519653 0)scale(0.996264)" xlink:href="#CMSS17-76"/>
       <use transform="translate(171.519795 0)scale(0.996264)" xlink:href="#CMSS17-65"/>
       <use transform="translate(244.38773 0)scale(0.996264)" xlink:href="#CMSS17-5a"/>
      </g>
     </g>
    </g>
   </g>
   <g id="matplotlib.axis_8">
    <g id="ytick_23">
     <g id="line2d_71">
      <path clip-path="url(#pd3d9fcd8a0)" d="M 913.759247 215.877819 
L 1141.2 215.877819 
" style="fill:none;stroke:#ffffff;stroke-linecap:round;"/>
     </g>
     <g id="line2d_72"/>
     <g id="text_43">
      <!-- $\mathdefault{0}$ -->
      <g style="fill:#262626;" transform="translate(901.777912 219.337068)scale(0.1 -0.1)">
       <use transform="scale(0.996264)" xlink:href="#CMR17-30"/>
      </g>
     </g>
    </g>
    <g id="ytick_24">
     <g id="line2d_73">
      <path clip-path="url(#pd3d9fcd8a0)" d="M 913.759247 192.448811 
L 1141.2 192.448811 
" style="fill:none;stroke:#ffffff;stroke-linecap:round;"/>
     </g>
     <g id="line2d_74"/>
     <g id="text_44">
      <!-- $\mathdefault{500}$ -->
      <g style="fill:#262626;" transform="translate(891.815242 195.90806)scale(0.1 -0.1)">
       <use transform="scale(0.996264)" xlink:href="#CMR17-35"/>
       <use transform="translate(45.690477 0)scale(0.996264)" xlink:href="#CMR17-30"/>
       <use transform="translate(91.380954 0)scale(0.996264)" xlink:href="#CMR17-30"/>
      </g>
     </g>
    </g>
    <g id="ytick_25">
     <g id="line2d_75">
      <path clip-path="url(#pd3d9fcd8a0)" d="M 913.759247 169.019803 
L 1141.2 169.019803 
" style="fill:none;stroke:#ffffff;stroke-linecap:round;"/>
     </g>
     <g id="line2d_76"/>
     <g id="text_45">
      <!-- $\mathdefault{1000}$ -->
      <g style="fill:#262626;" transform="translate(886.833906 172.479052)scale(0.1 -0.1)">
       <use transform="scale(0.996264)" xlink:href="#CMR17-31"/>
       <use transform="translate(45.690477 0)scale(0.996264)" xlink:href="#CMR17-30"/>
       <use transform="translate(91.380954 0)scale(0.996264)" xlink:href="#CMR17-30"/>
       <use transform="translate(137.071431 0)scale(0.996264)" xlink:href="#CMR17-30"/>
      </g>
     </g>
    </g>
    <g id="ytick_26">
     <g id="line2d_77">
      <path clip-path="url(#pd3d9fcd8a0)" d="M 913.759247 145.590795 
L 1141.2 145.590795 
" style="fill:none;stroke:#ffffff;stroke-linecap:round;"/>
     </g>
     <g id="line2d_78"/>
     <g id="text_46">
      <!-- $\mathdefault{1500}$ -->
      <g style="fill:#262626;" transform="translate(886.833906 149.050044)scale(0.1 -0.1)">
       <use transform="scale(0.996264)" xlink:href="#CMR17-31"/>
       <use transform="translate(45.690477 0)scale(0.996264)" xlink:href="#CMR17-35"/>
       <use transform="translate(91.380954 0)scale(0.996264)" xlink:href="#CMR17-30"/>
       <use transform="translate(137.071431 0)scale(0.996264)" xlink:href="#CMR17-30"/>
      </g>
     </g>
    </g>
    <g id="ytick_27">
     <g id="line2d_79">
      <path clip-path="url(#pd3d9fcd8a0)" d="M 913.759247 122.161787 
L 1141.2 122.161787 
" style="fill:none;stroke:#ffffff;stroke-linecap:round;"/>
     </g>
     <g id="line2d_80"/>
     <g id="text_47">
      <!-- $\mathdefault{2000}$ -->
      <g style="fill:#262626;" transform="translate(886.833906 125.621036)scale(0.1 -0.1)">
       <use transform="scale(0.996264)" xlink:href="#CMR17-32"/>
       <use transform="translate(45.690477 0)scale(0.996264)" xlink:href="#CMR17-30"/>
       <use transform="translate(91.380954 0)scale(0.996264)" xlink:href="#CMR17-30"/>
       <use transform="translate(137.071431 0)scale(0.996264)" xlink:href="#CMR17-30"/>
      </g>
     </g>
    </g>
    <g id="ytick_28">
     <g id="line2d_81">
      <path clip-path="url(#pd3d9fcd8a0)" d="M 913.759247 98.732779 
L 1141.2 98.732779 
" style="fill:none;stroke:#ffffff;stroke-linecap:round;"/>
     </g>
     <g id="line2d_82"/>
     <g id="text_48">
      <!-- $\mathdefault{2500}$ -->
      <g style="fill:#262626;" transform="translate(886.833906 102.192028)scale(0.1 -0.1)">
       <use transform="scale(0.996264)" xlink:href="#CMR17-32"/>
       <use transform="translate(45.690477 0)scale(0.996264)" xlink:href="#CMR17-35"/>
       <use transform="translate(91.380954 0)scale(0.996264)" xlink:href="#CMR17-30"/>
       <use transform="translate(137.071431 0)scale(0.996264)" xlink:href="#CMR17-30"/>
      </g>
     </g>
    </g>
    <g id="ytick_29">
     <g id="line2d_83">
      <path clip-path="url(#pd3d9fcd8a0)" d="M 913.759247 75.303771 
L 1141.2 75.303771 
" style="fill:none;stroke:#ffffff;stroke-linecap:round;"/>
     </g>
     <g id="line2d_84"/>
     <g id="text_49">
      <!-- $\mathdefault{3000}$ -->
      <g style="fill:#262626;" transform="translate(886.833906 78.76302)scale(0.1 -0.1)">
       <use transform="scale(0.996264)" xlink:href="#CMR17-33"/>
       <use transform="translate(45.690477 0)scale(0.996264)" xlink:href="#CMR17-30"/>
       <use transform="translate(91.380954 0)scale(0.996264)" xlink:href="#CMR17-30"/>
       <use transform="translate(137.071431 0)scale(0.996264)" xlink:href="#CMR17-30"/>
      </g>
     </g>
    </g>
    <g id="ytick_30">
     <g id="line2d_85">
      <path clip-path="url(#pd3d9fcd8a0)" d="M 913.759247 51.874763 
L 1141.2 51.874763 
" style="fill:none;stroke:#ffffff;stroke-linecap:round;"/>
     </g>
     <g id="line2d_86"/>
     <g id="text_50">
      <!-- $\mathdefault{3500}$ -->
      <g style="fill:#262626;" transform="translate(886.833906 55.334012)scale(0.1 -0.1)">
       <use transform="scale(0.996264)" xlink:href="#CMR17-33"/>
       <use transform="translate(45.690477 0)scale(0.996264)" xlink:href="#CMR17-35"/>
       <use transform="translate(91.380954 0)scale(0.996264)" xlink:href="#CMR17-30"/>
       <use transform="translate(137.071431 0)scale(0.996264)" xlink:href="#CMR17-30"/>
      </g>
     </g>
    </g>
    <g id="text_51">
     <!-- \# Experiments -->
     <g style="fill:#262626;" transform="translate(880.121878 171.183161)rotate(-90)scale(0.14 -0.14)">
      <use transform="scale(0.996264)" xlink:href="#CMSS17-23"/>
      <use transform="translate(109.301849 0)scale(0.996264)" xlink:href="#CMSS17-45"/>
      <use transform="translate(165.193862 0)scale(0.996264)" xlink:href="#CMSS17-78"/>
      <use transform="translate(208.194004 0)scale(0.996264)" xlink:href="#CMSS17-70"/>
      <use transform="translate(259.001386 0)scale(0.996264)" xlink:href="#CMSS17-65"/>
      <use transform="translate(300.640208 0)scale(0.996264)" xlink:href="#CMSS17-72"/>
      <use transform="translate(332.54998 0)scale(0.996264)" xlink:href="#CMSS17-69"/>
      <use transform="translate(354.730703 0)scale(0.996264)" xlink:href="#CMSS17-6d"/>
      <use transform="translate(428.959958 0)scale(0.996264)" xlink:href="#CMSS17-65"/>
      <use transform="translate(470.59878 0)scale(0.996264)" xlink:href="#CMSS17-6e"/>
      <use transform="translate(518.803723 0)scale(0.996264)" xlink:href="#CMSS17-74"/>
      <use transform="translate(552.63529 0)scale(0.996264)" xlink:href="#CMSS17-73"/>
     </g>
    </g>
   </g>
   <g id="patch_27">
    <path clip-path="url(#pd3d9fcd8a0)" d="M 924.097463 215.877819 
L 967.626794 215.877819 
L 967.626794 49.156998 
L 924.097463 49.156998 
z
" style="fill:#4c72b0;"/>
   </g>
   <g id="patch_28">
    <path clip-path="url(#pd3d9fcd8a0)" d="M 978.509127 215.877819 
L 1022.038457 215.877819 
L 1022.038457 95.40586 
L 978.509127 95.40586 
z
" style="fill:#4c72b0;"/>
   </g>
   <g id="patch_29">
    <path clip-path="url(#pd3d9fcd8a0)" d="M 1032.92079 215.877819 
L 1076.450121 215.877819 
L 1076.450121 101.591118 
L 1032.92079 101.591118 
z
" style="fill:#4c72b0;"/>
   </g>
   <g id="patch_30">
    <path clip-path="url(#pd3d9fcd8a0)" d="M 1087.332453 215.877819 
L 1130.861784 215.877819 
L 1130.861784 78.958696 
L 1087.332453 78.958696 
z
" style="fill:#4c72b0;"/>
   </g>
   <g id="patch_31">
    <path d="M 913.759247 215.877819 
L 913.759247 40.820957 
" style="fill:none;"/>
   </g>
   <g id="patch_32">
    <path d="M 1141.2 215.877819 
L 1141.2 40.820957 
" style="fill:none;"/>
   </g>
   <g id="patch_33">
    <path d="M 913.759247 215.877819 
L 1141.2 215.877819 
" style="fill:none;"/>
   </g>
   <g id="patch_34">
    <path d="M 913.759247 40.820957 
L 1141.2 40.820957 
" style="fill:none;"/>
   </g>
   <g id="text_52">
    <!-- Moving Cylinder Do-operation Types -->
    <g style="fill:#262626;" transform="translate(922.725418 34.820957)scale(0.14 -0.14)">
     <use transform="scale(0.996264)" xlink:href="#CMSS17-4d"/>
     <use transform="translate(81.67603 0)scale(0.996264)" xlink:href="#CMSS17-6f"/>
     <use transform="translate(128.519653 0)scale(0.996264)" xlink:href="#CMSS17-76"/>
     <use transform="translate(171.519795 0)scale(0.996264)" xlink:href="#CMSS17-69"/>
     <use transform="translate(193.700518 0)scale(0.996264)" xlink:href="#CMSS17-6e"/>
     <use transform="translate(241.905461 0)scale(0.996264)" xlink:href="#CMSS17-67"/>
     <use transform="translate(319.978198 0)scale(0.996264)" xlink:href="#CMSS17-43"/>
     <use transform="translate(379.833969 0)scale(0.996264)" xlink:href="#CMSS17-79"/>
     <use transform="translate(422.834111 0)scale(0.996264)" xlink:href="#CMSS17-6c"/>
     <use transform="translate(445.014834 0)scale(0.996264)" xlink:href="#CMSS17-69"/>
     <use transform="translate(467.195557 0)scale(0.996264)" xlink:href="#CMSS17-6e"/>
     <use transform="translate(515.4005 0)scale(0.996264)" xlink:href="#CMSS17-64"/>
     <use transform="translate(563.605443 0)scale(0.996264)" xlink:href="#CMSS17-65"/>
     <use transform="translate(605.244265 0)scale(0.996264)" xlink:href="#CMSS17-72"/>
     <use transform="translate(668.383151 0)scale(0.996264)" xlink:href="#CMSS17-44"/>
     <use transform="translate(735.925992 0)scale(0.996264)" xlink:href="#CMSS17-6f"/>
     <use transform="translate(782.769616 0)scale(0.996264)" xlink:href="#CMSS17-2d"/>
     <use transform="translate(813.998729 0)scale(0.996264)" xlink:href="#CMSS17-6f"/>
     <use transform="translate(860.842352 0)scale(0.996264)" xlink:href="#CMSS17-70"/>
     <use transform="translate(911.649734 0)scale(0.996264)" xlink:href="#CMSS17-65"/>
     <use transform="translate(953.288556 0)scale(0.996264)" xlink:href="#CMSS17-72"/>
     <use transform="translate(985.198329 0)scale(0.996264)" xlink:href="#CMSS17-61"/>
     <use transform="translate(1030.120249 0)scale(0.996264)" xlink:href="#CMSS17-74"/>
     <use transform="translate(1063.951816 0)scale(0.996264)" xlink:href="#CMSS17-69"/>
     <use transform="translate(1086.132539 0)scale(0.996264)" xlink:href="#CMSS17-6f"/>
     <use transform="translate(1132.976162 0)scale(0.996264)" xlink:href="#CMSS17-6e"/>
     <use transform="translate(1212.410218 0)scale(0.996264)" xlink:href="#CMSS17-54"/>
     <use transform="translate(1268.422417 0)scale(0.996264)" xlink:href="#CMSS17-79"/>
     <use transform="translate(1311.422558 0)scale(0.996264)" xlink:href="#CMSS17-70"/>
     <use transform="translate(1362.22994 0)scale(0.996264)" xlink:href="#CMSS17-65"/>
     <use transform="translate(1403.868762 0)scale(0.996264)" xlink:href="#CMSS17-73"/>
    </g>
   </g>
  </g>
 </g>
 <defs>
  <clipPath id="p4c5c01f01a">
   <rect height="175.056863" width="227.440753" x="54.123246" y="40.820957"/>
  </clipPath>
  <clipPath id="pca856d3530">
   <rect height="175.056863" width="227.440753" x="340.66858" y="40.820957"/>
  </clipPath>
  <clipPath id="pa713931653">
   <rect height="175.056863" width="227.440753" x="627.213913" y="40.820957"/>
  </clipPath>
  <clipPath id="pd3d9fcd8a0">
   <rect height="175.056863" width="227.440753" x="913.759247" y="40.820957"/>
  </clipPath>
 </defs>
</svg>
